<svg viewBox="0 0 46 35" fill="none" xmlns="http://www.w3.org/2000/svg">
<path d="M45.2553 18.8353C45.4987 18.1973 45.5623 17.4951 45.4381 16.8178C45.314 16.1404 45.0076 15.5183 44.5578 15.0301L31.6998 1.06578C31.4033 0.732349 31.0486 0.466393 30.6564 0.283429C30.2642 0.100466 29.8424 0.00415987 29.4156 0.000131813C28.9888 -0.00389624 28.5655 0.0844331 28.1705 0.259967C27.7754 0.435501 27.4165 0.694724 27.1147 1.02251C26.8129 1.3503 26.5742 1.74008 26.4126 2.16912C26.2509 2.59816 26.1696 3.05786 26.1733 3.52141C26.177 3.98495 26.2657 4.44305 26.4342 4.86897C26.6026 5.2949 26.8475 5.68012 27.1545 6.00216L34.5286 14.0107H3.71449C2.86195 14.0107 2.04434 14.3785 1.4415 15.0332C0.838669 15.6879 0.5 16.5759 0.5 17.5017C0.5 18.4276 0.838669 19.3156 1.4415 19.9703C2.04434 20.625 2.86195 20.9928 3.71449 20.9928H34.5286L27.1578 28.9978C26.8507 29.3199 26.6059 29.7051 26.4374 30.131C26.2689 30.557 26.1802 31.0151 26.1765 31.4786C26.1728 31.9421 26.2542 32.4018 26.4158 32.8309C26.5774 33.2599 26.8161 33.6497 27.1179 33.9775C27.4197 34.3053 27.7786 34.5645 28.1737 34.74C28.5687 34.9156 28.992 35.0039 29.4188 34.9999C29.8456 34.9958 30.2675 34.8995 30.6596 34.7166C31.0518 34.5336 31.4065 34.2677 31.703 33.9342L44.561 19.9699C44.8588 19.6449 45.0947 19.2594 45.2553 18.8353Z" fill="currentColor"/>
</svg>
