<svg width="34" height="19" viewBox="0 0 34 19" fill="none" xmlns="http://www.w3.org/2000/svg">
<mask id="path-1-inside-1_134_752" fill="white">
<path fill-rule="evenodd" clip-rule="evenodd" d="M19.9083 17.8186C18.1976 16.8724 15.8024 16.8724 14.0917 17.8186C12.7307 18.5715 11.1654 19 9.5 19C4.25329 19 0 14.7467 0 9.5C0 4.25329 4.25329 0 9.5 0C11.1654 0 12.7307 0.428537 14.0917 1.18136C15.8024 2.12762 18.1976 2.12762 19.9083 1.18136C21.2693 0.428537 22.8346 0 24.5 0C29.7467 0 34 4.25329 34 9.5C34 14.7467 29.7467 19 24.5 19C22.8346 19 21.2693 18.5715 19.9083 17.8186Z"/>
</mask>
<path fill-rule="evenodd" clip-rule="evenodd" d="M19.9083 17.8186C18.1976 16.8724 15.8024 16.8724 14.0917 17.8186C12.7307 18.5715 11.1654 19 9.5 19C4.25329 19 0 14.7467 0 9.5C0 4.25329 4.25329 0 9.5 0C11.1654 0 12.7307 0.428537 14.0917 1.18136C15.8024 2.12762 18.1976 2.12762 19.9083 1.18136C21.2693 0.428537 22.8346 0 24.5 0C29.7467 0 34 4.25329 34 9.5C34 14.7467 29.7467 19 24.5 19C22.8346 19 21.2693 18.5715 19.9083 17.8186Z" fill="#0092BF"/>
<path d="M14.0917 17.8186L13.6076 16.9436L14.0917 17.8186ZM19.9083 17.8186L19.4243 18.6937L19.9083 17.8186ZM13.6076 16.9436C12.3911 17.6165 10.9918 18 9.5 18V20C11.339 20 13.0704 19.5264 14.5757 18.6937L13.6076 16.9436ZM9.5 18C4.80558 18 1 14.1944 1 9.5H-1C-1 15.299 3.70101 20 9.5 20V18ZM1 9.5C1 4.80558 4.80558 1 9.5 1V-1C3.70101 -1 -1 3.70101 -1 9.5H1ZM9.5 1C10.9918 1 12.3911 1.38345 13.6076 2.05641L14.5757 0.306309C13.0704 -0.526377 11.339 -1 9.5 -1V1ZM20.3924 2.05641C21.6089 1.38345 23.0082 1 24.5 1V-1C22.661 -1 20.9296 -0.526377 19.4243 0.306309L20.3924 2.05641ZM24.5 1C29.1944 1 33 4.80558 33 9.5H35C35 3.70101 30.299 -1 24.5 -1V1ZM33 9.5C33 14.1944 29.1944 18 24.5 18V20C30.299 20 35 15.299 35 9.5H33ZM24.5 18C23.0082 18 21.6089 17.6165 20.3924 16.9436L19.4243 18.6937C20.9296 19.5264 22.661 20 24.5 20V18ZM13.6076 2.05641C15.6195 3.16927 18.3805 3.16928 20.3924 2.05641L19.4243 0.306309C18.0148 1.08597 15.9852 1.08597 14.5757 0.306309L13.6076 2.05641ZM14.5757 18.6937C15.9852 17.914 18.0148 17.914 19.4243 18.6937L20.3924 16.9436C18.3805 15.8307 15.6195 15.8307 13.6076 16.9436L14.5757 18.6937Z" fill="#00C3FF" mask="url(#path-1-inside-1_134_752)"/>
</svg>
