<svg viewBox="0 0 131 23" fill="none" xmlns="http://www.w3.org/2000/svg">
<path d="M5.66619 18H0.552557V0.545454H5.97301C7.63778 0.545454 9.06108 0.892045 10.2429 1.58523C11.4304 2.27841 12.3395 3.27273 12.9702 4.56818C13.6009 5.86364 13.9162 7.41761 13.9162 9.23011C13.9162 11.0597 13.5923 12.6307 12.9446 13.9432C12.3026 15.25 11.3651 16.2528 10.1321 16.9517C8.90483 17.6506 7.41619 18 5.66619 18ZM2.14631 16.5682H5.57244C7.07244 16.5682 8.32813 16.2727 9.33949 15.6818C10.3509 15.0909 11.1094 14.2472 11.6151 13.1506C12.1207 12.054 12.3736 10.7472 12.3736 9.23011C12.3679 7.72443 12.1179 6.42898 11.6236 5.34375C11.1349 4.25852 10.4077 3.42614 9.44176 2.84659C8.48153 2.26704 7.29403 1.97727 5.87926 1.97727H2.14631V16.5682ZM22.7564 18.2727C21.5348 18.2727 20.478 17.9886 19.5859 17.4205C18.6939 16.8466 18.0036 16.054 17.5149 15.0426C17.032 14.0256 16.7905 12.8551 16.7905 11.5312C16.7905 10.2131 17.032 9.04261 17.5149 8.01989C18.0036 6.99148 18.6768 6.1875 19.5348 5.60795C20.3984 5.02273 21.3956 4.73011 22.5263 4.73011C23.2365 4.73011 23.9212 4.8608 24.5803 5.12216C25.2393 5.37784 25.8303 5.77273 26.353 6.30682C26.8814 6.83523 27.299 7.50284 27.6058 8.30966C27.9126 9.1108 28.0661 10.0597 28.0661 11.1562V11.9062H17.8388V10.5682H26.5149C26.5149 9.72727 26.3445 8.97159 26.0036 8.30114C25.6683 7.625 25.1996 7.09091 24.5973 6.69886C24.0007 6.30682 23.3104 6.1108 22.5263 6.1108C21.6967 6.1108 20.9666 6.33239 20.3359 6.77557C19.7053 7.21875 19.2109 7.80398 18.853 8.53125C18.5007 9.25852 18.3217 10.054 18.3161 10.9176V11.7188C18.3161 12.7585 18.495 13.6676 18.853 14.446C19.2166 15.2187 19.7308 15.8182 20.3956 16.2443C21.0604 16.6705 21.8473 16.8835 22.7564 16.8835C23.3757 16.8835 23.9183 16.7869 24.3842 16.5938C24.8558 16.4006 25.2507 16.142 25.5689 15.8182C25.8928 15.4886 26.1371 15.1278 26.3018 14.7358L27.7422 15.2045C27.5433 15.7557 27.2166 16.2642 26.7621 16.7301C26.3132 17.196 25.7507 17.571 25.0746 17.8551C24.4041 18.1335 23.6314 18.2727 22.7564 18.2727ZM36.7017 18.2727C35.4801 18.2727 34.4233 17.9886 33.5312 17.4205C32.6392 16.8466 31.9489 16.054 31.4602 15.0426C30.9773 14.0256 30.7358 12.8551 30.7358 11.5312C30.7358 10.2131 30.9773 9.04261 31.4602 8.01989C31.9489 6.99148 32.6222 6.1875 33.4801 5.60795C34.3438 5.02273 35.3409 4.73011 36.4716 4.73011C37.1818 4.73011 37.8665 4.8608 38.5256 5.12216C39.1847 5.37784 39.7756 5.77273 40.2983 6.30682C40.8267 6.83523 41.2443 7.50284 41.5511 8.30966C41.858 9.1108 42.0114 10.0597 42.0114 11.1562V11.9062H31.7841V10.5682H40.4602C40.4602 9.72727 40.2898 8.97159 39.9489 8.30114C39.6136 7.625 39.1449 7.09091 38.5426 6.69886C37.946 6.30682 37.2557 6.1108 36.4716 6.1108C35.642 6.1108 34.9119 6.33239 34.2812 6.77557C33.6506 7.21875 33.1563 7.80398 32.7983 8.53125C32.446 9.25852 32.267 10.054 32.2614 10.9176V11.7188C32.2614 12.7585 32.4403 13.6676 32.7983 14.446C33.1619 15.2187 33.6761 15.8182 34.3409 16.2443C35.0057 16.6705 35.7926 16.8835 36.7017 16.8835C37.321 16.8835 37.8636 16.7869 38.3295 16.5938C38.8011 16.4006 39.196 16.142 39.5142 15.8182C39.8381 15.4886 40.0824 15.1278 40.2472 14.7358L41.6875 15.2045C41.4886 15.7557 41.1619 16.2642 40.7074 16.7301C40.2585 17.196 39.696 17.571 39.0199 17.8551C38.3494 18.1335 37.5767 18.2727 36.7017 18.2727ZM45.3544 22.9091V4.90909H46.8288V7.40625H47.0078C47.1896 7.0142 47.4396 6.61364 47.7578 6.20455C48.076 5.78977 48.4964 5.44034 49.0192 5.15625C49.5476 4.87216 50.2124 4.73011 51.0135 4.73011C52.093 4.73011 53.0362 5.0142 53.843 5.58239C54.6555 6.14489 55.2862 6.93466 55.7351 7.9517C56.1896 8.96307 56.4169 10.142 56.4169 11.4886C56.4169 12.8409 56.1896 14.0256 55.7351 15.0426C55.2862 16.0597 54.6555 16.8523 53.843 17.4205C53.0362 17.9886 52.0987 18.2727 51.0305 18.2727C50.2408 18.2727 49.5788 18.1307 49.0447 17.8466C48.5163 17.5625 48.0874 17.2131 47.7578 16.7983C47.4339 16.3778 47.1839 15.9687 47.0078 15.571H46.8714V22.9091H45.3544ZM46.8544 11.4631C46.8544 12.5199 47.0107 13.4574 47.3232 14.2756C47.6413 15.0881 48.0959 15.7273 48.6868 16.1932C49.2834 16.6534 50.005 16.8835 50.8516 16.8835C51.7209 16.8835 52.4538 16.6449 53.0504 16.1676C53.6527 15.6847 54.1101 15.0341 54.4226 14.2159C54.7408 13.3977 54.8999 12.4801 54.8999 11.4631C54.8999 10.4574 54.7436 9.55114 54.4311 8.74432C54.1243 7.9375 53.6697 7.2983 53.0675 6.8267C52.4652 6.34943 51.7266 6.1108 50.8516 6.1108C49.9993 6.1108 49.2749 6.34091 48.6783 6.80114C48.0817 7.25568 47.6271 7.88636 47.3146 8.69318C47.0078 9.49432 46.8544 10.4176 46.8544 11.4631ZM62.1058 0.545454L65.9496 6.9375H66.0859L69.9467 0.545454H73.5518L68.174 9.27273L73.6371 18H69.9723L66.0859 11.6506H65.9496L62.0632 18H58.4155L63.9297 9.27273L58.4837 0.545454H62.1058ZM76.0341 18V0.545454H82.5795C83.9205 0.545454 85.0455 0.778409 85.9545 1.24432C86.8693 1.71023 87.5597 2.36364 88.0256 3.20454C88.4972 4.03977 88.733 5.0142 88.733 6.12784C88.733 7.24716 88.4943 8.21875 88.017 9.04261C87.5455 9.8608 86.8494 10.4943 85.929 10.9432C85.0085 11.3864 83.8778 11.608 82.5369 11.608H77.875V8.98295H82.1108C82.8949 8.98295 83.5369 8.875 84.0369 8.65909C84.5369 8.4375 84.9063 8.11648 85.1449 7.69602C85.3892 7.26989 85.5114 6.74716 85.5114 6.12784C85.5114 5.50852 85.3892 4.98011 85.1449 4.54261C84.9006 4.09943 84.5284 3.7642 84.0284 3.53693C83.5284 3.30398 82.8835 3.1875 82.0938 3.1875H79.196V18H76.0341ZM85.0511 10.0909L89.3722 18H85.8438L81.5994 10.0909H85.0511ZM92.2401 18V0.545454H93.8338V16.5682H102.152V18H92.2401ZM109.081 18.2983C108.291 18.2983 107.57 18.1449 106.916 17.8381C106.263 17.5256 105.743 17.0767 105.357 16.4915C104.97 15.9006 104.777 15.1847 104.777 14.3438C104.777 13.696 104.899 13.1506 105.143 12.7074C105.388 12.2642 105.734 11.9006 106.183 11.6165C106.632 11.3324 107.163 11.108 107.777 10.9432C108.391 10.7784 109.067 10.6506 109.805 10.5597C110.538 10.4687 111.158 10.3892 111.663 10.321C112.175 10.2528 112.564 10.1449 112.831 9.99716C113.098 9.84943 113.232 9.6108 113.232 9.28125V8.97443C113.232 8.08239 112.964 7.38068 112.43 6.86932C111.902 6.35227 111.141 6.09375 110.146 6.09375C109.203 6.09375 108.433 6.30114 107.837 6.71591C107.246 7.13068 106.831 7.61932 106.592 8.18182L105.152 7.66193C105.447 6.94602 105.857 6.375 106.379 5.94886C106.902 5.51705 107.487 5.20739 108.135 5.01989C108.783 4.8267 109.439 4.73011 110.104 4.73011C110.604 4.73011 111.124 4.79545 111.663 4.92614C112.209 5.05682 112.714 5.28409 113.18 5.60795C113.646 5.92614 114.024 6.37216 114.314 6.94602C114.604 7.5142 114.749 8.2358 114.749 9.1108V18H113.232V15.929H113.138C112.956 16.3153 112.686 16.6903 112.328 17.054C111.97 17.4176 111.521 17.7159 110.982 17.9489C110.442 18.1818 109.808 18.2983 109.081 18.2983ZM109.286 16.9091C110.092 16.9091 110.791 16.7301 111.382 16.3722C111.973 16.0142 112.428 15.5398 112.746 14.9489C113.07 14.3523 113.232 13.696 113.232 12.9801V11.0881C113.118 11.196 112.928 11.2926 112.661 11.3778C112.399 11.4631 112.095 11.5398 111.749 11.608C111.408 11.6705 111.067 11.7244 110.726 11.7699C110.385 11.8153 110.078 11.8551 109.805 11.8892C109.067 11.9801 108.436 12.1222 107.913 12.3153C107.391 12.5085 106.99 12.7756 106.712 13.1165C106.433 13.4517 106.294 13.8835 106.294 14.4119C106.294 15.2074 106.578 15.8239 107.146 16.2614C107.714 16.6932 108.428 16.9091 109.286 16.9091ZM119.099 18V0.545454H120.625V7.40625H120.761C120.932 7.0142 121.176 6.6108 121.494 6.19602C121.818 5.78125 122.241 5.43466 122.764 5.15625C123.293 4.87216 123.957 4.73011 124.759 4.73011C125.832 4.73011 126.776 5.0142 127.588 5.58239C128.401 6.14489 129.034 6.93466 129.489 7.9517C129.943 8.96307 130.17 10.142 130.17 11.4886C130.17 12.8409 129.943 14.0256 129.489 15.0426C129.04 16.0597 128.409 16.8523 127.597 17.4205C126.79 17.9886 125.852 18.2727 124.784 18.2727C123.989 18.2727 123.324 18.1307 122.79 17.8466C122.261 17.5625 121.835 17.2131 121.511 16.7983C121.188 16.3778 120.938 15.9687 120.761 15.571H120.574V18H119.099ZM120.599 11.4631C120.599 12.5199 120.756 13.4574 121.068 14.2756C121.386 15.0881 121.841 15.7273 122.432 16.1932C123.028 16.6534 123.75 16.8835 124.597 16.8835C125.466 16.8835 126.202 16.6449 126.804 16.1676C127.406 15.6847 127.864 15.0341 128.176 14.2159C128.489 13.3977 128.645 12.4801 128.645 11.4631C128.645 10.4574 128.489 9.55114 128.176 8.74432C127.869 7.9375 127.415 7.2983 126.812 6.8267C126.21 6.34943 125.472 6.1108 124.597 6.1108C123.744 6.1108 123.02 6.34091 122.423 6.80114C121.832 7.25568 121.381 7.88636 121.068 8.69318C120.756 9.49432 120.599 10.4176 120.599 11.4631Z" fill="currentColor"/>
</svg>
